<svg width="300" height="126" viewBox="0 0 300 126" fill="none" xmlns="http://www.w3.org/2000/svg">
<rect y="1" width="300" height="125" rx="5" fill="#E9CDC2"/>
<rect x="0.5" y="1.5" width="299" height="124" rx="4.5" stroke="black" stroke-opacity="0.01"/>
<path d="M101.195 19L70 1H230L199.308 19H101.195Z" fill="#D3AEA2" stroke="black" stroke-opacity="0.01"/>
<mask id="path-4-outside-1_12_46" maskUnits="userSpaceOnUse" x="31" y="54" width="238" height="20" fill="black">
<rect fill="white" x="31" y="54" width="238" height="20"/>
<path d="M44.8771 55.5H47.3771V73H44.8771V55.5ZM34.8271 73H32.3271V55.5H34.8271V73ZM45.1021 65.2H34.5771V63.025H45.1021V65.2ZM50.4099 73L58.3349 55.5H60.8099L68.7599 73H66.1349L59.0599 56.9H60.0599L52.9849 73H50.4099ZM53.7849 68.625L54.4599 66.625H64.3099L65.0349 68.625H53.7849ZM90.5501 73L85.0751 64.375L87.1751 63.125L93.4751 73H90.5501ZM81.5751 65.3V63.1H86.7001V65.3H81.5751ZM87.3251 64.525L85.0001 64.175L90.3751 55.5H93.0501L87.3251 64.525ZM71.6251 73H68.7001L74.9751 63.125L77.1001 64.375L71.6251 73ZM82.3251 73H79.8751V55.5H82.3251V73ZM80.6251 65.3H75.4751V63.1H80.6251V65.3ZM74.8751 64.525L69.1251 55.5H71.8001L77.1501 64.175L74.8751 64.525ZM96.0966 73V55.5H98.1466L105.997 68.725H104.897L112.647 55.5H114.697L114.722 73H112.322L112.297 59.275H112.872L105.972 70.875H104.822L97.8716 59.275H98.4966V73H96.0966ZM120.169 73V55.5H122.644V69L132.994 55.5H135.294V73H132.844V59.525L122.469 73H120.169ZM160.014 55.5H162.514V73H160.014V55.5ZM149.964 73H147.464V55.5H149.964V73ZM160.239 65.2H149.714V63.025H160.239V65.2ZM165.547 73L173.472 55.5H175.947L183.897 73H181.272L174.197 56.9H175.197L168.122 73H165.547ZM168.922 68.625L169.597 66.625H179.447L180.172 68.625H168.922ZM193.631 73V55.5H195.681L203.531 68.725H202.431L210.181 55.5H212.231L212.256 73H209.856L209.831 59.275H210.406L203.506 70.875H202.356L195.406 59.275H196.031V73H193.631ZM219.978 63.05H228.978V65.175H219.978V63.05ZM220.203 70.825H230.403V73H217.703V55.5H230.053V57.675H220.203V70.825ZM246.879 55.5H249.379V73H246.879V55.5ZM236.829 73H234.329V55.5H236.829V73ZM247.104 65.2H236.579V63.025H247.104V65.2ZM265.212 73V67.3L265.862 67.9H260.387C258.97 67.9 257.745 67.6583 256.712 67.175C255.695 66.6917 254.912 66 254.362 65.1C253.828 64.1833 253.562 63.0833 253.562 61.8C253.562 60.4667 253.853 59.3333 254.437 58.4C255.02 57.45 255.845 56.7333 256.912 56.25C257.978 55.75 259.22 55.5 260.637 55.5H267.662V73H265.212ZM253.562 73L257.887 66.8H260.437L256.212 73H253.562ZM265.212 66.5V56.95L265.862 57.675H260.737C259.237 57.675 258.087 58.025 257.287 58.725C256.487 59.4083 256.087 60.425 256.087 61.775C256.087 63.0583 256.462 64.05 257.212 64.75C257.978 65.45 259.103 65.8 260.587 65.8H265.862L265.212 66.5Z"/>
</mask>
<path d="M44.8771 55.5H47.3771V73H44.8771V55.5ZM34.8271 73H32.3271V55.5H34.8271V73ZM45.1021 65.2H34.5771V63.025H45.1021V65.2ZM50.4099 73L58.3349 55.5H60.8099L68.7599 73H66.1349L59.0599 56.9H60.0599L52.9849 73H50.4099ZM53.7849 68.625L54.4599 66.625H64.3099L65.0349 68.625H53.7849ZM90.5501 73L85.0751 64.375L87.1751 63.125L93.4751 73H90.5501ZM81.5751 65.3V63.1H86.7001V65.3H81.5751ZM87.3251 64.525L85.0001 64.175L90.3751 55.5H93.0501L87.3251 64.525ZM71.6251 73H68.7001L74.9751 63.125L77.1001 64.375L71.6251 73ZM82.3251 73H79.8751V55.5H82.3251V73ZM80.6251 65.3H75.4751V63.1H80.6251V65.3ZM74.8751 64.525L69.1251 55.5H71.8001L77.1501 64.175L74.8751 64.525ZM96.0966 73V55.5H98.1466L105.997 68.725H104.897L112.647 55.5H114.697L114.722 73H112.322L112.297 59.275H112.872L105.972 70.875H104.822L97.8716 59.275H98.4966V73H96.0966ZM120.169 73V55.5H122.644V69L132.994 55.5H135.294V73H132.844V59.525L122.469 73H120.169ZM160.014 55.5H162.514V73H160.014V55.5ZM149.964 73H147.464V55.5H149.964V73ZM160.239 65.2H149.714V63.025H160.239V65.2ZM165.547 73L173.472 55.5H175.947L183.897 73H181.272L174.197 56.9H175.197L168.122 73H165.547ZM168.922 68.625L169.597 66.625H179.447L180.172 68.625H168.922ZM193.631 73V55.5H195.681L203.531 68.725H202.431L210.181 55.5H212.231L212.256 73H209.856L209.831 59.275H210.406L203.506 70.875H202.356L195.406 59.275H196.031V73H193.631ZM219.978 63.05H228.978V65.175H219.978V63.05ZM220.203 70.825H230.403V73H217.703V55.5H230.053V57.675H220.203V70.825ZM246.879 55.5H249.379V73H246.879V55.5ZM236.829 73H234.329V55.5H236.829V73ZM247.104 65.2H236.579V63.025H247.104V65.2ZM265.212 73V67.3L265.862 67.9H260.387C258.97 67.9 257.745 67.6583 256.712 67.175C255.695 66.6917 254.912 66 254.362 65.1C253.828 64.1833 253.562 63.0833 253.562 61.8C253.562 60.4667 253.853 59.3333 254.437 58.4C255.02 57.45 255.845 56.7333 256.912 56.25C257.978 55.75 259.22 55.5 260.637 55.5H267.662V73H265.212ZM253.562 73L257.887 66.8H260.437L256.212 73H253.562ZM265.212 66.5V56.95L265.862 57.675H260.737C259.237 57.675 258.087 58.025 257.287 58.725C256.487 59.4083 256.087 60.425 256.087 61.775C256.087 63.0583 256.462 64.05 257.212 64.75C257.978 65.45 259.103 65.8 260.587 65.8H265.862L265.212 66.5Z" fill="#C2A294"/>
<path d="M44.8771 55.5V54.5H43.8771V55.5H44.8771ZM47.3771 55.5H48.3771V54.5H47.3771V55.5ZM47.3771 73V74H48.3771V73H47.3771ZM44.8771 73H43.8771V74H44.8771V73ZM34.8271 73V74H35.8271V73H34.8271ZM32.3271 73H31.3271V74H32.3271V73ZM32.3271 55.5V54.5H31.3271V55.5H32.3271ZM34.8271 55.5H35.8271V54.5H34.8271V55.5ZM45.1021 65.2V66.2H46.1021V65.2H45.1021ZM34.5771 65.2H33.5771V66.2H34.5771V65.2ZM34.5771 63.025V62.025H33.5771V63.025H34.5771ZM45.1021 63.025H46.1021V62.025H45.1021V63.025ZM44.8771 55.5V56.5H47.3771V55.5V54.5H44.8771V55.5ZM47.3771 55.5H46.3771V73H47.3771H48.3771V55.5H47.3771ZM47.3771 73V72H44.8771V73V74H47.3771V73ZM44.8771 73H45.8771V55.5H44.8771H43.8771V73H44.8771ZM34.8271 73V72H32.3271V73V74H34.8271V73ZM32.3271 73H33.3271V55.5H32.3271H31.3271V73H32.3271ZM32.3271 55.5V56.5H34.8271V55.5V54.5H32.3271V55.5ZM34.8271 55.5H33.8271V73H34.8271H35.8271V55.5H34.8271ZM45.1021 65.2V64.2H34.5771V65.2V66.2H45.1021V65.2ZM34.5771 65.2H35.5771V63.025H34.5771H33.5771V65.2H34.5771ZM34.5771 63.025V64.025H45.1021V63.025V62.025H34.5771V63.025ZM45.1021 63.025H44.1021V65.2H45.1021H46.1021V63.025H45.1021ZM50.4099 73L49.4989 72.5875L48.8592 74H50.4099V73ZM58.3349 55.5V54.5H57.69L57.4239 55.0875L58.3349 55.5ZM60.8099 55.5L61.7203 55.0864L61.4539 54.5H60.8099V55.5ZM68.7599 73V74H70.3125L69.6703 72.5864L68.7599 73ZM66.1349 73L65.2194 73.4023L65.482 74H66.1349V73ZM59.0599 56.9V55.9H57.5281L58.1444 57.3023L59.0599 56.9ZM60.0599 56.9L60.9754 57.3023L61.5916 55.9H60.0599V56.9ZM52.9849 73V74H53.6377L53.9004 73.4023L52.9849 73ZM53.7849 68.625L52.8374 68.3052L52.3919 69.625H53.7849V68.625ZM54.4599 66.625V65.625H53.7419L53.5124 66.3052L54.4599 66.625ZM64.3099 66.625L65.25 66.2842L65.011 65.625H64.3099V66.625ZM65.0349 68.625V69.625H66.461L65.975 68.2842L65.0349 68.625ZM50.4099 73L51.3208 73.4125L59.2458 55.9125L58.3349 55.5L57.4239 55.0875L49.4989 72.5875L50.4099 73ZM58.3349 55.5V56.5H60.8099V55.5V54.5H58.3349V55.5ZM60.8099 55.5L59.8994 55.9136L67.8494 73.4136L68.7599 73L69.6703 72.5864L61.7203 55.0864L60.8099 55.5ZM68.7599 73V72H66.1349V73V74H68.7599V73ZM66.1349 73L67.0504 72.5977L59.9754 56.4977L59.0599 56.9L58.1444 57.3023L65.2194 73.4023L66.1349 73ZM59.0599 56.9V57.9H60.0599V56.9V55.9H59.0599V56.9ZM60.0599 56.9L59.1444 56.4977L52.0694 72.5977L52.9849 73L53.9004 73.4023L60.9754 57.3023L60.0599 56.9ZM52.9849 73V72H50.4099V73V74H52.9849V73ZM53.7849 68.625L54.7324 68.9448L55.4074 66.9448L54.4599 66.625L53.5124 66.3052L52.8374 68.3052L53.7849 68.625ZM54.4599 66.625V67.625H64.3099V66.625V65.625H54.4599V66.625ZM64.3099 66.625L63.3697 66.9658L64.0947 68.9658L65.0349 68.625L65.975 68.2842L65.25 66.2842L64.3099 66.625ZM65.0349 68.625V67.625H53.7849V68.625V69.625H65.0349V68.625ZM90.5501 73L89.7058 73.5359L90.0004 74H90.5501V73ZM85.0751 64.375L84.5636 63.5157L83.6793 64.0421L84.2308 64.9109L85.0751 64.375ZM87.1751 63.125L88.0181 62.5872L87.4967 61.7698L86.6636 62.2657L87.1751 63.125ZM93.4751 73V74H95.2992L94.3181 72.4622L93.4751 73ZM81.5751 65.3H80.5751V66.3H81.5751V65.3ZM81.5751 63.1V62.1H80.5751V63.1H81.5751ZM86.7001 63.1H87.7001V62.1H86.7001V63.1ZM86.7001 65.3V66.3H87.7001V65.3H86.7001ZM87.3251 64.525L87.1762 65.5139L87.8205 65.6108L88.1695 65.0607L87.3251 64.525ZM85.0001 64.175L84.15 63.6483L83.3509 64.938L84.8512 65.1639L85.0001 64.175ZM90.3751 55.5V54.5H89.8183L89.525 54.9733L90.3751 55.5ZM93.0501 55.5L93.8945 56.0357L94.8687 54.5H93.0501V55.5ZM71.6251 73V74H72.1748L72.4694 73.5359L71.6251 73ZM68.7001 73L67.8561 72.4637L66.8798 74H68.7001V73ZM74.9751 63.125L75.4821 62.2631L74.6493 61.7732L74.1311 62.5887L74.9751 63.125ZM77.1001 64.375L77.9444 64.9109L78.4988 64.0376L77.6071 63.5131L77.1001 64.375ZM82.3251 73V74H83.3251V73H82.3251ZM79.8751 73H78.8751V74H79.8751V73ZM79.8751 55.5V54.5H78.8751V55.5H79.8751ZM82.3251 55.5H83.3251V54.5H82.3251V55.5ZM80.6251 65.3V66.3H81.6251V65.3H80.6251ZM75.4751 65.3H74.4751V66.3H75.4751V65.3ZM75.4751 63.1V62.1H74.4751V63.1H75.4751ZM80.6251 63.1H81.6251V62.1H80.6251V63.1ZM74.8751 64.525L74.0317 65.0623L74.3823 65.6126L75.0272 65.5134L74.8751 64.525ZM69.1251 55.5V54.5H67.3023L68.2817 56.0373L69.1251 55.5ZM71.8001 55.5L72.6512 54.9751L72.3583 54.5H71.8001V55.5ZM77.1501 64.175L77.3022 65.1634L78.7931 64.934L78.0013 63.6501L77.1501 64.175ZM90.5501 73L91.3944 72.4641L85.9194 63.8391L85.0751 64.375L84.2308 64.9109L89.7058 73.5359L90.5501 73ZM85.0751 64.375L85.5866 65.2343L87.6866 63.9843L87.1751 63.125L86.6636 62.2657L84.5636 63.5157L85.0751 64.375ZM87.1751 63.125L86.3321 63.6628L92.632 73.5378L93.4751 73L94.3181 72.4622L88.0181 62.5872L87.1751 63.125ZM93.4751 73V72H90.5501V73V74H93.4751V73ZM81.5751 65.3H82.5751V63.1H81.5751H80.5751V65.3H81.5751ZM81.5751 63.1V64.1H86.7001V63.1V62.1H81.5751V63.1ZM86.7001 63.1H85.7001V65.3H86.7001H87.7001V63.1H86.7001ZM86.7001 65.3V64.3H81.5751V65.3V66.3H86.7001V65.3ZM87.3251 64.525L87.474 63.5361L85.149 63.1861L85.0001 64.175L84.8512 65.1639L87.1762 65.5139L87.3251 64.525ZM85.0001 64.175L85.8502 64.7017L91.2252 56.0267L90.3751 55.5L89.525 54.9733L84.15 63.6483L85.0001 64.175ZM90.3751 55.5V56.5H93.0501V55.5V54.5H90.3751V55.5ZM93.0501 55.5L92.2057 54.9643L86.4807 63.9893L87.3251 64.525L88.1695 65.0607L93.8945 56.0357L93.0501 55.5ZM71.6251 73V72H68.7001V73V74H71.6251V73ZM68.7001 73L69.5441 73.5363L75.8191 63.6613L74.9751 63.125L74.1311 62.5887L67.8561 72.4637L68.7001 73ZM74.9751 63.125L74.4681 63.9869L76.5931 65.2369L77.1001 64.375L77.6071 63.5131L75.4821 62.2631L74.9751 63.125ZM77.1001 64.375L76.2558 63.8391L70.7808 72.4641L71.6251 73L72.4694 73.5359L77.9444 64.9109L77.1001 64.375ZM82.3251 73V72H79.8751V73V74H82.3251V73ZM79.8751 73H80.8751V55.5H79.8751H78.8751V73H79.8751ZM79.8751 55.5V56.5H82.3251V55.5V54.5H79.8751V55.5ZM82.3251 55.5H81.3251V73H82.3251H83.3251V55.5H82.3251ZM80.6251 65.3V64.3H75.4751V65.3V66.3H80.6251V65.3ZM75.4751 65.3H76.4751V63.1H75.4751H74.4751V65.3H75.4751ZM75.4751 63.1V64.1H80.6251V63.1V62.1H75.4751V63.1ZM80.6251 63.1H79.6251V65.3H80.6251H81.6251V63.1H80.6251ZM74.8751 64.525L75.7185 63.9877L69.9685 54.9627L69.1251 55.5L68.2817 56.0373L74.0317 65.0623L74.8751 64.525ZM69.1251 55.5V56.5H71.8001V55.5V54.5H69.1251V55.5ZM71.8001 55.5L70.9489 56.0249L76.2989 64.6999L77.1501 64.175L78.0013 63.6501L72.6512 54.9751L71.8001 55.5ZM77.1501 64.175L76.998 63.1866L74.723 63.5366L74.8751 64.525L75.0272 65.5134L77.3022 65.1634L77.1501 64.175ZM96.0966 73H95.0966V74H96.0966V73ZM96.0966 55.5V54.5H95.0966V55.5H96.0966ZM98.1466 55.5L99.0065 54.9896L98.7159 54.5H98.1466V55.5ZM105.997 68.725V69.725H107.753L106.857 68.2146L105.997 68.725ZM104.897 68.725L104.034 68.2194L103.152 69.725H104.897V68.725ZM112.647 55.5V54.5H112.074L111.784 54.9944L112.647 55.5ZM114.697 55.5L115.697 55.4986L115.695 54.5H114.697V55.5ZM114.722 73V74H115.723L115.722 72.9986L114.722 73ZM112.322 73L111.322 73.0018L111.323 74H112.322V73ZM112.297 59.275V58.275H111.295L111.297 59.2768L112.297 59.275ZM112.872 59.275L113.731 59.7862L114.63 58.275H112.872V59.275ZM105.972 70.875V71.875H106.54L106.831 71.3862L105.972 70.875ZM104.822 70.875L103.964 71.389L104.255 71.875H104.822V70.875ZM97.8716 59.275V58.275H96.1067L97.0138 59.789L97.8716 59.275ZM98.4966 59.275H99.4966V58.275H98.4966V59.275ZM98.4966 73V74H99.4966V73H98.4966ZM96.0966 73H97.0966V55.5H96.0966H95.0966V73H96.0966ZM96.0966 55.5V56.5H98.1466V55.5V54.5H96.0966V55.5ZM98.1466 55.5L97.2867 56.0104L105.137 69.2354L105.997 68.725L106.857 68.2146L99.0065 54.9896L98.1466 55.5ZM105.997 68.725V67.725H104.897V68.725V69.725H105.997V68.725ZM104.897 68.725L105.759 69.2306L113.509 56.0056L112.647 55.5L111.784 54.9944L104.034 68.2194L104.897 68.725ZM112.647 55.5V56.5H114.697V55.5V54.5H112.647V55.5ZM114.697 55.5L113.697 55.5014L113.722 73.0014L114.722 73L115.722 72.9986L115.697 55.4986L114.697 55.5ZM114.722 73V72H112.322V73V74H114.722V73ZM112.322 73L113.322 72.9982L113.297 59.2732L112.297 59.275L111.297 59.2768L111.322 73.0018L112.322 73ZM112.297 59.275V60.275H112.872V59.275V58.275H112.297V59.275ZM112.872 59.275L112.012 58.7638L105.112 70.3638L105.972 70.875L106.831 71.3862L113.731 59.7862L112.872 59.275ZM105.972 70.875V69.875H104.822V70.875V71.875H105.972V70.875ZM104.822 70.875L105.679 70.361L98.7294 58.761L97.8716 59.275L97.0138 59.789L103.964 71.389L104.822 70.875ZM97.8716 59.275V60.275H98.4966V59.275V58.275H97.8716V59.275ZM98.4966 59.275H97.4966V73H98.4966H99.4966V59.275H98.4966ZM98.4966 73V72H96.0966V73V74H98.4966V73ZM120.169 73H119.169V74H120.169V73ZM120.169 55.5V54.5H119.169V55.5H120.169ZM122.644 55.5H123.644V54.5H122.644V55.5ZM122.644 69H121.644V71.9479L123.437 69.6084L122.644 69ZM132.994 55.5V54.5H132.5L132.2 54.8916L132.994 55.5ZM135.294 55.5H136.294V54.5H135.294V55.5ZM135.294 73V74H136.294V73H135.294ZM132.844 73H131.844V74H132.844V73ZM132.844 59.525H133.844V56.587L132.051 58.9149L132.844 59.525ZM122.469 73V74H122.961L123.261 73.6101L122.469 73ZM120.169 73H121.169V55.5H120.169H119.169V73H120.169ZM120.169 55.5V56.5H122.644V55.5V54.5H120.169V55.5ZM122.644 55.5H121.644V69H122.644H123.644V55.5H122.644ZM122.644 69L123.437 69.6084L133.787 56.1084L132.994 55.5L132.2 54.8916L121.85 68.3916L122.644 69ZM132.994 55.5V56.5H135.294V55.5V54.5H132.994V55.5ZM135.294 55.5H134.294V73H135.294H136.294V55.5H135.294ZM135.294 73V72H132.844V73V74H135.294V73ZM132.844 73H133.844V59.525H132.844H131.844V73H132.844ZM132.844 59.525L132.051 58.9149L121.676 72.3899L122.469 73L123.261 73.6101L133.636 60.1351L132.844 59.525ZM122.469 73V72H120.169V73V74H122.469V73ZM160.014 55.5V54.5H159.014V55.5H160.014ZM162.514 55.5H163.514V54.5H162.514V55.5ZM162.514 73V74H163.514V73H162.514ZM160.014 73H159.014V74H160.014V73ZM149.964 73V74H150.964V73H149.964ZM147.464 73H146.464V74H147.464V73ZM147.464 55.5V54.5H146.464V55.5H147.464ZM149.964 55.5H150.964V54.5H149.964V55.5ZM160.239 65.2V66.2H161.239V65.2H160.239ZM149.714 65.2H148.714V66.2H149.714V65.2ZM149.714 63.025V62.025H148.714V63.025H149.714ZM160.239 63.025H161.239V62.025H160.239V63.025ZM160.014 55.5V56.5H162.514V55.5V54.5H160.014V55.5ZM162.514 55.5H161.514V73H162.514H163.514V55.5H162.514ZM162.514 73V72H160.014V73V74H162.514V73ZM160.014 73H161.014V55.5H160.014H159.014V73H160.014ZM149.964 73V72H147.464V73V74H149.964V73ZM147.464 73H148.464V55.5H147.464H146.464V73H147.464ZM147.464 55.5V56.5H149.964V55.5V54.5H147.464V55.5ZM149.964 55.5H148.964V73H149.964H150.964V55.5H149.964ZM160.239 65.2V64.2H149.714V65.2V66.2H160.239V65.2ZM149.714 65.2H150.714V63.025H149.714H148.714V65.2H149.714ZM149.714 63.025V64.025H160.239V63.025V62.025H149.714V63.025ZM160.239 63.025H159.239V65.2H160.239H161.239V63.025H160.239ZM165.547 73L164.636 72.5875L163.996 74H165.547V73ZM173.472 55.5V54.5H172.827L172.561 55.0875L173.472 55.5ZM175.947 55.5L176.857 55.0864L176.591 54.5H175.947V55.5ZM183.897 73V74H185.449L184.807 72.5864L183.897 73ZM181.272 73L180.356 73.4023L180.619 74H181.272V73ZM174.197 56.9V55.9H172.665L173.281 57.3023L174.197 56.9ZM175.197 56.9L176.112 57.3023L176.728 55.9H175.197V56.9ZM168.122 73V74H168.774L169.037 73.4023L168.122 73ZM168.922 68.625L167.974 68.3052L167.529 69.625H168.922V68.625ZM169.597 66.625V65.625H168.879L168.649 66.3052L169.597 66.625ZM179.447 66.625L180.387 66.2842L180.148 65.625H179.447V66.625ZM180.172 68.625V69.625H181.598L181.112 68.2842L180.172 68.625ZM165.547 73L166.458 73.4125L174.383 55.9125L173.472 55.5L172.561 55.0875L164.636 72.5875L165.547 73ZM173.472 55.5V56.5H175.947V55.5V54.5H173.472V55.5ZM175.947 55.5L175.036 55.9136L182.986 73.4136L183.897 73L184.807 72.5864L176.857 55.0864L175.947 55.5ZM183.897 73V72H181.272V73V74H183.897V73ZM181.272 73L182.187 72.5977L175.112 56.4977L174.197 56.9L173.281 57.3023L180.356 73.4023L181.272 73ZM174.197 56.9V57.9H175.197V56.9V55.9H174.197V56.9ZM175.197 56.9L174.281 56.4977L167.206 72.5977L168.122 73L169.037 73.4023L176.112 57.3023L175.197 56.9ZM168.122 73V72H165.547V73V74H168.122V73ZM168.922 68.625L169.869 68.9448L170.544 66.9448L169.597 66.625L168.649 66.3052L167.974 68.3052L168.922 68.625ZM169.597 66.625V67.625H179.447V66.625V65.625H169.597V66.625ZM179.447 66.625L178.506 66.9658L179.231 68.9658L180.172 68.625L181.112 68.2842L180.387 66.2842L179.447 66.625ZM180.172 68.625V67.625H168.922V68.625V69.625H180.172V68.625ZM193.631 73H192.631V74H193.631V73ZM193.631 55.5V54.5H192.631V55.5H193.631ZM195.681 55.5L196.541 54.9896L196.25 54.5H195.681V55.5ZM203.531 68.725V69.725H205.287L204.391 68.2146L203.531 68.725ZM202.431 68.725L201.568 68.2194L200.686 69.725H202.431V68.725ZM210.181 55.5V54.5H209.608L209.318 54.9944L210.181 55.5ZM212.231 55.5L213.231 55.4986L213.229 54.5H212.231V55.5ZM212.256 73V74H213.257L213.256 72.9986L212.256 73ZM209.856 73L208.856 73.0018L208.858 74H209.856V73ZM209.831 59.275V58.275H208.829L208.831 59.2768L209.831 59.275ZM210.406 59.275L211.265 59.7862L212.164 58.275H210.406V59.275ZM203.506 70.875V71.875H204.074L204.365 71.3862L203.506 70.875ZM202.356 70.875L201.498 71.389L201.789 71.875H202.356V70.875ZM195.406 59.275V58.275H193.641L194.548 59.789L195.406 59.275ZM196.031 59.275H197.031V58.275H196.031V59.275ZM196.031 73V74H197.031V73H196.031ZM193.631 73H194.631V55.5H193.631H192.631V73H193.631ZM193.631 55.5V56.5H195.681V55.5V54.5H193.631V55.5ZM195.681 55.5L194.821 56.0104L202.671 69.2354L203.531 68.725L204.391 68.2146L196.541 54.9896L195.681 55.5ZM203.531 68.725V67.725H202.431V68.725V69.725H203.531V68.725ZM202.431 68.725L203.294 69.2306L211.044 56.0056L210.181 55.5L209.318 54.9944L201.568 68.2194L202.431 68.725ZM210.181 55.5V56.5H212.231V55.5V54.5H210.181V55.5ZM212.231 55.5L211.231 55.5014L211.256 73.0014L212.256 73L213.256 72.9986L213.231 55.4986L212.231 55.5ZM212.256 73V72H209.856V73V74H212.256V73ZM209.856 73L210.856 72.9982L210.831 59.2732L209.831 59.275L208.831 59.2768L208.856 73.0018L209.856 73ZM209.831 59.275V60.275H210.406V59.275V58.275H209.831V59.275ZM210.406 59.275L209.546 58.7638L202.646 70.3638L203.506 70.875L204.365 71.3862L211.265 59.7862L210.406 59.275ZM203.506 70.875V69.875H202.356V70.875V71.875H203.506V70.875ZM202.356 70.875L203.214 70.361L196.264 58.761L195.406 59.275L194.548 59.789L201.498 71.389L202.356 70.875ZM195.406 59.275V60.275H196.031V59.275V58.275H195.406V59.275ZM196.031 59.275H195.031V73H196.031H197.031V59.275H196.031ZM196.031 73V72H193.631V73V74H196.031V73ZM219.978 63.05V62.05H218.978V63.05H219.978ZM228.978 63.05H229.978V62.05H228.978V63.05ZM228.978 65.175V66.175H229.978V65.175H228.978ZM219.978 65.175H218.978V66.175H219.978V65.175ZM220.203 70.825H219.203V71.825H220.203V70.825ZM230.403 70.825H231.403V69.825H230.403V70.825ZM230.403 73V74H231.403V73H230.403ZM217.703 73H216.703V74H217.703V73ZM217.703 55.5V54.5H216.703V55.5H217.703ZM230.053 55.5H231.053V54.5H230.053V55.5ZM230.053 57.675V58.675H231.053V57.675H230.053ZM220.203 57.675V56.675H219.203V57.675H220.203ZM219.978 63.05V64.05H228.978V63.05V62.05H219.978V63.05ZM228.978 63.05H227.978V65.175H228.978H229.978V63.05H228.978ZM228.978 65.175V64.175H219.978V65.175V66.175H228.978V65.175ZM219.978 65.175H220.978V63.05H219.978H218.978V65.175H219.978ZM220.203 70.825V71.825H230.403V70.825V69.825H220.203V70.825ZM230.403 70.825H229.403V73H230.403H231.403V70.825H230.403ZM230.403 73V72H217.703V73V74H230.403V73ZM217.703 73H218.703V55.5H217.703H216.703V73H217.703ZM217.703 55.5V56.5H230.053V55.5V54.5H217.703V55.5ZM230.053 55.5H229.053V57.675H230.053H231.053V55.5H230.053ZM230.053 57.675V56.675H220.203V57.675V58.675H230.053V57.675ZM220.203 57.675H219.203V70.825H220.203H221.203V57.675H220.203ZM246.879 55.5V54.5H245.879V55.5H246.879ZM249.379 55.5H250.379V54.5H249.379V55.5ZM249.379 73V74H250.379V73H249.379ZM246.879 73H245.879V74H246.879V73ZM236.829 73V74H237.829V73H236.829ZM234.329 73H233.329V74H234.329V73ZM234.329 55.5V54.5H233.329V55.5H234.329ZM236.829 55.5H237.829V54.5H236.829V55.5ZM247.104 65.2V66.2H248.104V65.2H247.104ZM236.579 65.2H235.579V66.2H236.579V65.2ZM236.579 63.025V62.025H235.579V63.025H236.579ZM247.104 63.025H248.104V62.025H247.104V63.025ZM246.879 55.5V56.5H249.379V55.5V54.5H246.879V55.5ZM249.379 55.5H248.379V73H249.379H250.379V55.5H249.379ZM249.379 73V72H246.879V73V74H249.379V73ZM246.879 73H247.879V55.5H246.879H245.879V73H246.879ZM236.829 73V72H234.329V73V74H236.829V73ZM234.329 73H235.329V55.5H234.329H233.329V73H234.329ZM234.329 55.5V56.5H236.829V55.5V54.5H234.329V55.5ZM236.829 55.5H235.829V73H236.829H237.829V55.5H236.829ZM247.104 65.2V64.2H236.579V65.2V66.2H247.104V65.2ZM236.579 65.2H237.579V63.025H236.579H235.579V65.2H236.579ZM236.579 63.025V64.025H247.104V63.025V62.025H236.579V63.025ZM247.104 63.025H246.104V65.2H247.104H248.104V63.025H247.104ZM265.212 73H264.212V74H265.212V73ZM265.212 67.3L265.89 66.5652L264.212 65.016V67.3H265.212ZM265.862 67.9V68.9H268.419L266.54 67.1652L265.862 67.9ZM256.712 67.175L256.282 68.0782L256.288 68.0808L256.712 67.175ZM254.362 65.1L253.497 65.6029L253.503 65.6122L253.509 65.6215L254.362 65.1ZM254.437 58.4L255.285 58.93L255.289 58.9233L254.437 58.4ZM256.912 56.25L257.325 57.1609L257.336 57.1555L256.912 56.25ZM267.662 55.5H268.662V54.5H267.662V55.5ZM267.662 73V74H268.662V73H267.662ZM253.562 73L252.742 72.4279L251.645 74H253.562V73ZM257.887 66.8V65.8H257.365L257.067 66.2279L257.887 66.8ZM260.437 66.8L261.263 67.3631L262.328 65.8H260.437V66.8ZM256.212 73V74H256.74L257.038 73.5631L256.212 73ZM265.212 66.5H264.212V69.0465L265.945 67.1805L265.212 66.5ZM265.212 56.95L265.956 56.2825L264.212 54.3366V56.95H265.212ZM265.862 57.675V58.675H268.101L266.606 57.0075L265.862 57.675ZM257.287 58.725L257.936 59.4854L257.945 59.4776L257.287 58.725ZM257.212 64.75L256.529 65.4811L256.538 65.4885L257.212 64.75ZM265.862 65.8L266.595 66.4804L268.155 64.8H265.862V65.8ZM265.212 73H266.212V67.3H265.212H264.212V73H265.212ZM265.212 67.3L264.534 68.0348L265.184 68.6348L265.862 67.9L266.54 67.1652L265.89 66.5652L265.212 67.3ZM265.862 67.9V66.9H260.387V67.9V68.9H265.862V67.9ZM260.387 67.9V66.9C259.082 66.9 258.008 66.6774 257.135 66.2692L256.712 67.175L256.288 68.0808C257.482 68.6393 258.858 68.9 260.387 68.9V67.9ZM256.712 67.175L257.141 66.2719C256.288 65.866 255.657 65.3016 255.215 64.5785L254.362 65.1L253.509 65.6215C254.167 66.6984 255.103 67.5173 256.282 68.0781L256.712 67.175ZM254.362 65.1L255.226 64.5971C254.799 63.8623 254.562 62.9437 254.562 61.8H253.562H252.562C252.562 63.2229 252.858 64.5044 253.497 65.6029L254.362 65.1ZM253.562 61.8H254.562C254.562 60.6143 254.82 59.6737 255.285 58.93L254.437 58.4L253.589 57.87C252.887 58.993 252.562 60.3191 252.562 61.8H253.562ZM254.437 58.4L255.289 58.9233C255.762 58.1523 256.43 57.5662 257.325 57.1609L256.912 56.25L256.499 55.3391C255.26 55.9005 254.278 56.7477 253.585 57.8767L254.437 58.4ZM256.912 56.25L257.336 57.1555C258.246 56.7291 259.338 56.5 260.637 56.5V55.5V54.5C259.103 54.5 257.711 54.7709 256.487 55.3445L256.912 56.25ZM260.637 55.5V56.5H267.662V55.5V54.5H260.637V55.5ZM267.662 55.5H266.662V73H267.662H268.662V55.5H267.662ZM267.662 73V72H265.212V73V74H267.662V73ZM253.562 73L254.382 73.5721L258.707 67.3721L257.887 66.8L257.067 66.2279L252.742 72.4279L253.562 73ZM257.887 66.8V67.8H260.437V66.8V65.8H257.887V66.8ZM260.437 66.8L259.61 66.2369L255.385 72.4369L256.212 73L257.038 73.5631L261.263 67.3631L260.437 66.8ZM256.212 73V72H253.562V73V74H256.212V73ZM265.212 66.5H266.212V56.95H265.212H264.212V66.5H265.212ZM265.212 56.95L264.467 57.6175L265.117 58.3425L265.862 57.675L266.606 57.0075L265.956 56.2825L265.212 56.95ZM265.862 57.675V56.675H260.737V57.675V58.675H265.862V57.675ZM260.737 57.675V56.675C259.093 56.675 257.673 57.0581 256.628 57.9724L257.287 58.725L257.945 59.4776C258.5 58.9919 259.38 58.675 260.737 58.675V57.675ZM257.287 58.725L256.637 57.9646C255.555 58.889 255.087 60.2215 255.087 61.775H256.087H257.087C257.087 60.6285 257.419 59.9277 257.936 59.4854L257.287 58.725ZM256.087 61.775H255.087C255.087 63.2613 255.528 64.5466 256.529 65.4811L257.212 64.75L257.894 64.0189C257.395 63.5534 257.087 62.8554 257.087 61.775H256.087ZM257.212 64.75L256.538 65.4885C257.554 66.4168 258.96 66.8 260.587 66.8V65.8V64.8C259.247 64.8 258.403 64.4832 257.886 64.0115L257.212 64.75ZM260.587 65.8V66.8H265.862V65.8V64.8H260.587V65.8ZM265.862 65.8L265.129 65.1195L264.479 65.8195L265.212 66.5L265.945 67.1805L266.595 66.4804L265.862 65.8Z" fill="black" fill-opacity="0.01" mask="url(#path-4-outside-1_12_46)"/>
</svg>
