<svg xmlns="http://www.w3.org/2000/svg" viewBox="0 0 15 15" width="15" height="15">
  <path d="M5.67 13.604l6.836-5.157c1.548-1.05 2.474-4.032.827-5.955C11.91.637 9.23.24 7.348 1.665l-5.812 4.36a.553.553 0 00-.115.77c.17.257.542.285.77.115l5.87-4.363a3.179 3.179 0 014.418.627c.616.696 1.304 2.846-.627 4.388L4.983 12.72c-.827.627-2.024.454-2.678-.37-.852-1.194-.178-2.254.37-2.652l3.933-2.933c.285-.228.712-.17.912.115.115.142.263.66-.143.912L4.585 9.871c-.258.17-.285.542-.115.77.17.257.542.284.77.115l2.793-2.08c.973-.774.767-1.884.343-2.478-.598-.77-1.71-.94-2.48-.343L1.994 8.792C.114 10.24.884 12.5 1.396 13.01c1.11 1.416 3.03 1.496 4.273.594z" fill="currentColor"></path>
</svg>