<svg width="56" height="56" viewBox="0 0 56 56" fill="none" xmlns="http://www.w3.org/2000/svg">
<path fill-rule="evenodd" clip-rule="evenodd" d="M38.026 36.2561C38.2147 40.531 34.7647 44.1458 30.3207 44.3275C29.9934 44.3413 14.0356 44.3091 14.0356 44.3091C9.61316 44.6448 5.7426 41.4669 5.39377 37.2081C5.36749 36.8908 5.37466 19.7685 5.37466 19.7685C5.17874 15.4891 8.62402 11.8651 13.0704 11.6765C13.4025 11.6604 29.3387 11.6903 29.3387 11.6903C33.7827 11.3592 37.6652 14.5601 38.0092 18.8395C38.0331 19.1477 38.026 36.2561 38.026 36.2561Z" stroke="#54C59C" stroke-width="2" stroke-linecap="round" stroke-linejoin="round"/>
<path d="M38.0332 23.2864L45.7169 16.9981C47.6209 15.4394 50.4769 16.7974 50.4745 19.2544L50.4465 36.4021C50.4442 38.8591 47.5859 40.2054 45.6865 38.6468L38.0332 32.3584" stroke="#54C59C" stroke-width="2" stroke-linecap="round" stroke-linejoin="round"/>
</svg>
