<svg width="56" height="56" viewBox="0 0 56 56" fill="none" xmlns="http://www.w3.org/2000/svg">
<path d="M27.9889 38.9126V32.9929" stroke="#54C59C" stroke-width="2.5" stroke-linecap="round" stroke-linejoin="round"/>
<path fill-rule="evenodd" clip-rule="evenodd" d="M42.4432 12.4373C46.3865 12.4373 49.5598 15.6339 49.5598 19.5773V27.6039C43.8198 30.9639 36.2365 32.9939 27.9765 32.9939C19.7165 32.9939 12.1565 30.9639 6.4165 27.6039V19.5539C6.4165 15.6106 9.61317 12.4373 13.5565 12.4373H42.4432Z" stroke="#54C59C" stroke-width="2.5" stroke-linecap="round" stroke-linejoin="round"/>
<path d="M36.1556 12.4269V11.5729C36.1556 8.72626 33.8456 6.41626 30.9989 6.41626H24.9789C22.1323 6.41626 19.8223 8.72626 19.8223 11.5729V12.4269" stroke="#54C59C" stroke-width="2.5" stroke-linecap="round" stroke-linejoin="round"/>
<path d="M6.47363 36.127L6.91463 41.9813C7.2133 45.927 10.501 48.9766 14.456 48.9766H41.5203C45.4753 48.9766 48.763 45.927 49.0616 41.9813L49.5026 36.127" stroke="#54C59C" stroke-width="2.5" stroke-linecap="round" stroke-linejoin="round"/>
</svg>
