<svg width="32" height="32" viewBox="0 0 32 32" fill="none" xmlns="http://www.w3.org/2000/svg">
<path fill-rule="evenodd" clip-rule="evenodd" d="M17.4723 5.5693L19.9089 10.437C20.1477 10.9148 20.6086 11.2462 21.1431 11.3229L26.5938 12.1074C27.9405 12.3019 28.4764 13.934 27.5018 14.8692L23.5602 18.6565C23.1729 19.029 22.9966 19.5644 23.0882 20.0901L24.0184 25.437C24.2475 26.7597 22.8397 27.7689 21.636 27.1431L16.7643 24.6169C16.2867 24.369 15.7147 24.369 15.2357 24.6169L10.364 27.1431C9.16031 27.7689 7.75253 26.7597 7.98299 25.437L8.91179 20.0901C9.00343 19.5644 8.82711 19.029 8.43976 18.6565L4.49824 14.8692C3.52362 13.934 4.05952 12.3019 5.40622 12.1074L10.8569 11.3229C11.3914 11.2462 11.8537 10.9148 12.0925 10.437L14.5277 5.5693C15.1302 4.36573 16.8698 4.36573 17.4723 5.5693Z" stroke="#54C59C" stroke-width="2" stroke-linecap="round" stroke-linejoin="round"/>
</svg>
